HIERARCHY
ROOT Hips
{
	OFFSET 0.00000 0.00000 0.00000
	CHANNELS 6 Xposition Yposition Zposition Zrotation Yrotation Xrotation 
	JOINT LHipJoint
	{
		OFFSET 0 0 0
		CHANNELS 3 Zrotation Yrotation Xrotation
		JOINT LeftUpLeg
		{
			OFFSET 1.81638 -1.86202 0.89635
			CHANNELS 3 Zrotation Yrotation Xrotation
			JOINT LeftLeg
			{
				OFFSET 2.63464 -7.23861 0.00000
				CHANNELS 3 Zrotation Yrotation Xrotation
				JOINT LeftFoot
				{
					OFFSET 2.45871 -6.75336 0.00000
					CHANNELS 3 Zrotation Yrotation Xrotation
					JOINT LeftToeBase
					{
						OFFSET 0.34235 -0.94059 2.20020
						CHANNELS 3 Zrotation Yrotation Xrotation
						End Site
						{
							OFFSET 0.00000 -0.00000 1.18611
						}
					}
				}
			}
		}
	}
	JOINT RHipJoint
	{
		OFFSET 0 0 0
		CHANNELS 3 Zrotation Yrotation Xrotation
		JOINT RightUpLeg
		{
			OFFSET -1.84405 -1.86203 0.89635
			CHANNELS 3 Zrotation Yrotation Xrotation
			JOINT RightLeg
			{
				OFFSET -2.71067 -7.44751 0.00000
				CHANNELS 3 Zrotation Yrotation Xrotation
				JOINT RightFoot
				{
					OFFSET -2.47159 -6.79060 0.00000
					CHANNELS 3 Zrotation Yrotation Xrotation
					JOINT RightToeBase
					{
						OFFSET -0.26223 -0.72048 2.36007
						CHANNELS 3 Zrotation Yrotation Xrotation
						End Site
						{
							OFFSET -0.00000 -0.00000 1.23343
						}
					}
				}
			}
		}
	}
	JOINT LowerBack
	{
		OFFSET 0 0 0
		CHANNELS 3 Zrotation Yrotation Xrotation
		JOINT Spine
		{
			OFFSET 0.02089 1.99248 -0.22512
			CHANNELS 3 Zrotation Yrotation Xrotation
			JOINT Spine1
			{
				OFFSET 0.01476 2.01356 -0.03079
				CHANNELS 3 Zrotation Yrotation Xrotation
				JOINT Neck
				{
					OFFSET 0 0 0
					CHANNELS 3 Zrotation Yrotation Xrotation
					JOINT Neck1
					{
						OFFSET 0.04846 1.65098 0.06663
						CHANNELS 3 Zrotation Yrotation Xrotation
						JOINT Head
						{
							OFFSET -0.06061 1.60634 -0.07565
							CHANNELS 3 Zrotation Yrotation Xrotation
							End Site
							{
								OFFSET -0.02954 1.73562 -0.03642
							}
						}
					}
				}
				JOINT LeftShoulder
				{
					OFFSET 0 0 0
					CHANNELS 3 Zrotation Yrotation Xrotation
					JOINT LeftArm
					{
						OFFSET 3.45234 1.47051 -0.06993
						CHANNELS 3 Zrotation Yrotation Xrotation
						JOINT LeftForeArm
						{
							OFFSET 5.49313 -0.00000 0.00000
							CHANNELS 3 Zrotation Yrotation Xrotation
							JOINT LeftHand
							{
								OFFSET 3.29037 -0.00000 0.00000
								CHANNELS 3 Zrotation Yrotation Xrotation
								JOINT LeftFingerBase
								{
									OFFSET 0 0 0
									CHANNELS 3 Zrotation Yrotation Xrotation
									JOINT LeftHandIndex1
									{
										OFFSET 0.72966 -0.00000 0.00000
										CHANNELS 3 Zrotation Yrotation Xrotation
										End Site
										{
											OFFSET 0.58827 -0.00000 0.00000
										}
									}
								}
								JOINT LThumb
								{
									OFFSET 0 0 0
									CHANNELS 3 Zrotation Yrotation Xrotation
									End Site
									{
										OFFSET 0.59725 -0.00000 0.59725
									}
								}
							}
						}
					}
				}
				JOINT RightShoulder
				{
					OFFSET 0 0 0
					CHANNELS 3 Zrotation Yrotation Xrotation
					JOINT RightArm
					{
						OFFSET -3.41935 1.44327 0.20453
						CHANNELS 3 Zrotation Yrotation Xrotation
						JOINT RightForeArm
						{
							OFFSET -5.23684 -0.00000 0.00000
							CHANNELS 3 Zrotation Yrotation Xrotation
							JOINT RightHand
							{
								OFFSET -3.38251 -0.00000 0.00000
								CHANNELS 3 Zrotation Yrotation Xrotation
								JOINT RightFingerBase
								{
									OFFSET 0 0 0
									CHANNELS 3 Zrotation Yrotation Xrotation
									JOINT RightHandIndex1
									{
										OFFSET -0.69145 -0.00000 0.00000
										CHANNELS 3 Zrotation Yrotation Xrotation
										End Site
										{
											OFFSET -0.55747 -0.00000 0.00000
										}
									}
								}
								JOINT RThumb
								{
									OFFSET 0 0 0
									CHANNELS 3 Zrotation Yrotation Xrotation
									End Site
									{
										OFFSET -0.56598 -0.00000 0.56598
									}
								}
							}
						}
					}
				}
			}
		}
	}
}
MOTION
Frames: 7
Frame Time: 0.0363636
0.00 0.00 0.00 -244.8420 103.7900 -196.0130 0.0000 0.0000 0.0000 15.5794 13.1356 -70.6509 32.0376 16.0916 127.5727 -4.8719 -35.5943 15.6436 1.8382 -8.5207 -24.3071 0.0000 0.0000 0.0000 18.3664 19.8950 -39.8041 -26.3266 -19.0120 108.7954 -0.7473 22.4697 -20.8793 -1.9192 8.6958 -24.8482 -5.6043 4.8467 36.5492 -1.0784 4.1698 5.0793 -0.0225 2.2116 -12.7387 -0.3822 -0.5401 -1.9908 -5.0474 -1.0165 -25.5673 -1.6161 0.4916 -7.5422 0.0000 -0.0000 0.0000 -49.8629 -53.5637 40.3327 25.1122 -36.3185 -8.3563 -0.0000 -0.0000 19.3253 60.6083 -7.1989 -12.5425 -7.1250 0.0000 -0.0000 22.9470 16.1636 -17.0972 0.0000 -0.0000 0.0000 42.9924 49.9976 32.8634 -33.3135 43.5696 -13.6377 0.0000 0.0000 23.8307 -59.3896 -5.7685 9.6414 7.1250 -0.0000 -0.0000 -28.2300 -39.4379 -4.2747
0.00 0.00 0.00 -260.0890 95.2442 -208.5800 0.0000 0.0000 0.0000 1.6528 -2.7984 -66.2543 30.8298 16.9160 123.3231 -1.7239 -22.5396 6.8313 0.1706 -2.6609 -7.3360 0.0000 0.0000 0.0000 16.3194 0.0728 -38.9792 -23.9831 -19.6153 101.7178 1.3043 29.1456 -12.4165 -0.8850 5.9970 -16.7757 -0.8514 2.7955 35.9466 -0.5223 3.5556 4.9630 -1.6262 1.7799 -12.4724 2.9226 -1.4031 -4.4135 -5.9123 -2.1626 -25.2047 -2.4140 -0.2987 -7.0660 -0.0000 -0.0000 0.0000 -76.3157 -53.7692 59.9207 20.6864 -31.4605 -5.8854 -0.0000 -0.0000 26.3077 64.0291 -15.5529 -28.8307 -7.1250 0.0000 -0.0000 22.1105 -0.4767 -24.1634 -0.0000 -0.0000 0.0000 10.2419 57.5104 14.1923 -19.1887 29.6525 -5.1239 0.0000 0.0000 33.4552 -59.3371 -8.8940 14.6157 7.1250 -0.0000 -0.0000 -30.2140 -44.6261 -0.3082
0.00 0.00 0.00 -305.0800 92.8178 -255.1400 0.0000 0.0000 0.0000 -0.5549 -13.6824 -50.0630 26.5589 18.9357 109.5100 -1.7246 -23.0935 14.6601 0.2902 -3.4644 -9.5745 0.0000 0.0000 0.0000 15.3852 -9.0101 -46.3801 -26.7063 -18.8857 109.9646 2.7466 29.3758 1.1141 -0.0756 1.7735 -4.8801 3.4328 -0.2780 38.0459 0.9360 1.7625 5.3566 -1.5999 0.8793 -12.7438 4.3615 -0.7254 -3.5878 -5.1696 -1.0803 -25.1218 -2.4575 -0.0177 -7.1347 0.0000 0.0000 0.0000 -72.8597 -44.5314 60.3204 27.1147 -38.2884 -9.5701 -0.0000 -0.0000 22.2898 46.7546 -11.8789 -12.3447 -7.1250 0.0000 -0.0000 13.1355 13.2303 -10.0541 0.0000 0.0000 0.0000 24.2119 58.7913 23.5117 -17.7337 27.8149 -4.4243 0.0000 0.0000 38.2364 -66.0128 -9.9235 21.1713 7.1250 -0.0000 -0.0000 -39.0731 -48.6291 4.0792
0.00 0.00 0.00 -370.5220 92.9225 -325.4760 0.0000 0.0000 0.0000 -6.1379 -15.8188 -35.9246 23.4186 19.7175 100.0408 -1.0937 -18.8735 12.7767 0.2395 -3.1495 -8.6953 0.0000 0.0000 0.0000 9.4131 -11.2239 -56.1548 -31.0862 -16.7520 124.2083 4.0432 33.1528 9.2444 -0.1002 2.0414 -5.6200 4.5733 -2.0866 42.7907 2.6865 0.7655 5.1657 0.1510 0.4398 -14.6174 3.6244 -0.4600 -3.0676 -4.5934 -0.6491 -24.4967 -2.1448 0.1646 -6.9924 -0.0000 0.0000 0.0000 -57.0359 -52.4660 43.3709 36.9435 -46.1511 -16.1992 -0.0000 -0.0000 19.1443 46.6446 -8.1138 -8.5018 -7.1250 0.0000 -0.0000 13.8871 18.4327 -9.0532 -0.0000 0.0000 0.0000 33.3968 57.3814 32.5240 -18.1713 28.3759 -4.6303 0.0000 0.0000 41.4840 -67.1620 -7.2232 16.6234 7.1250 -0.0000 -0.0000 -37.2807 -44.1278 -0.9431
0.00 0.00 0.00 -392.2070 95.5196 -348.6060 0.0000 0.0000 0.0000 -8.5969 -15.6554 -29.9876 21.9675 19.9069 95.7612 -1.0227 -18.4231 12.9458 0.1226 -2.2572 -6.2170 0.0000 0.0000 0.0000 7.6443 -8.1638 -60.4183 -32.6846 -15.5918 129.9427 3.6165 31.3968 11.6425 -0.2585 3.2709 -9.0339 4.0124 -3.7594 44.0089 3.5974 -1.2022 4.6409 2.4281 -0.3335 -15.6432 1.9762 0.0060 -2.9880 -3.6046 0.1266 -23.9500 -1.5649 0.5849 -6.7989 -0.0000 -0.0000 0.0000 -42.4089 -63.7139 23.6941 27.2877 -38.4522 -9.6775 -0.0000 -0.0000 18.2848 43.8051 -5.9874 -5.7133 -7.1250 0.0000 -0.0000 12.3741 21.7761 -7.0632 -0.0000 -0.0000 0.0000 41.4591 56.7661 42.2302 -18.7763 29.1398 -4.9215 0.0000 0.0000 42.5262 -67.9730 -6.2288 15.0125 7.1250 -0.0000 -0.0000 -37.0257 -42.4502 -2.7537
0.00 0.00 0.00 -282.2610 93.7632 -231.7930 0.0000 0.0000 0.0000 -3.9952 6.0272 -32.4397 24.4524 19.5179 103.1192 0.7370 -15.1856 27.8950 0.5041 4.5513 12.6330 0.0000 0.0000 0.0000 14.1092 15.0502 -49.1466 -29.8614 -17.4871 120.0493 -0.6506 11.5898 23.5087 -0.1051 -2.0902 5.7550 0.7257 0.1405 40.0647 3.1204 1.5702 3.7842 2.2819 0.8934 -15.4864 -0.6807 -0.7770 -4.1146 -5.3868 -1.3428 -24.2604 -1.6341 0.2982 -6.7522 -0.0000 0.0000 0.0000 -46.1446 -60.5782 28.3177 18.3072 -28.5487 -4.6951 -0.0000 -0.0000 18.2393 60.0543 -10.8980 -18.1688 -7.1250 0.0000 -0.0000 21.3932 9.9396 -18.7752 -0.0000 0.0000 0.0000 45.7497 45.0772 52.8306 -34.1469 44.1933 -14.2154 0.0000 0.0000 34.2459 -62.0899 0.4671 -0.8817 7.1250 -0.0000 -0.0000 -26.7967 -28.3392 -12.1305
0.00 0.00 0.00 -300.2700 94.0409 -248.1280 0.0000 0.0000 0.0000 1.7982 9.5203 -45.3226 28.6104 18.1205 115.9596 2.1138 -18.0279 38.6713 0.7590 5.5641 15.5246 0.0000 0.0000 0.0000 16.5992 16.2176 -43.7080 -27.9716 -18.4026 113.9213 -3.5679 5.5428 37.9072 -0.3353 -3.7210 10.2931 1.1555 1.1132 38.8772 1.9659 2.6730 3.3563 0.2819 1.2849 -15.5164 1.4838 -1.2612 -3.1872 -6.4251 -2.1843 -24.2002 -2.3044 -0.2103 -6.9327 0.0000 -0.0000 0.0000 -54.6072 -60.1021 38.0439 19.0717 -29.5077 -5.0661 -0.0000 -0.0000 19.7886 63.1325 -16.3256 -29.0237 -7.1250 0.0000 -0.0000 21.4167 -1.0611 -23.5048 0.0000 -0.0000 0.0000 37.1781 51.3377 27.5436 -34.1078 44.1645 -14.1881 0.0000 0.0000 23.5188 -59.0608 -5.0665 8.3811 7.1250 -0.0000 -0.0000 -27.5201 -38.1900 -5.0853
